HIERARCHY
ROOT Hips
{
	OFFSET 0.00000 0.00000 0.00000
	CHANNELS 6 Xposition Yposition Zposition Yrotation Zrotation Xrotation 
	JOINT Lumbar
	{
		OFFSET 0 0 0
		CHANNELS 3 Zrotation Xrotation Yrotation
		JOINT Neck
		{
			OFFSET 0.00 0.2701 0.00
			CHANNELS 3 Zrotation Xrotation Yrotation
			End Site
			{
				OFFSET 0.00 0.1379 0.00
			}
		}
		JOINT RightShoulder
		{
			OFFSET 0.0119 0.2289 0.1181
			CHANNELS 3 Zrotation Xrotation Yrotation
			JOINT RightElbow
			{
				OFFSET 0.00 -0.1475 0.00
				CHANNELS 2 Zrotation Yrotation
				JOINT RightWrist
				{
					OFFSET 0.00 -0.1605 0.00
					CHANNELS 2 Zrotation Xrotation
					End Site
					{
						OFFSET 0.0040 -0.1068 0.0006
					}
				}
			}
		}
		JOINT LeftShoulder
		{
			OFFSET 0.0119 0.2289 -0.1181
			CHANNELS 3 Zrotation Xrotation Yrotation
			JOINT LeftElbow
			{
				OFFSET 0.00 -0.1475 0.00
				CHANNELS 2 Zrotation Yrotation
				JOINT LeftWrist
				{
					OFFSET 0.00 -0.1605 0.00
					CHANNELS 2 Zrotation Xrotation
					End Site
					{
						OFFSET 0.0040 -0.1068 -0.0006
					}
				}
			}
		}
	}
	JOINT RightHip
	{
		OFFSET 0.0316 -0.0424 0.0458
		CHANNELS 3 Zrotation Xrotation Yrotation
		JOINT RightKnee
		{
			OFFSET 0.00 -0.2438 0.00
			CHANNELS 1 Zrotation
			JOINT RightAnkle
			{
				OFFSET 0.00 -0.2449 0.00
				CHANNELS 3 Zrotation Xrotation Yrotation
				End Site
				{
					OFFSET 0.1237 -0.0542 0.0051
				}
			}
		}
	}
	JOINT LeftHip
	{
		OFFSET 0.0316 -0.0424 -0.0458
		CHANNELS 3 Zrotation Xrotation Yrotation
		JOINT LeftKnee
		{
			OFFSET 0.00 -0.2438 0.00
			CHANNELS 1 Zrotation
			JOINT LeftAnkle
			{
				OFFSET 0.00 -0.2449 0.00
				CHANNELS 3 Zrotation Xrotation Yrotation
				End Site
				{
					OFFSET 0.1237 -0.0542 -0.0051
				}
			}
		}
	}
}
MOTION
Frames: 10
Frame Time: 0.02
0.2732 -0.57669 0.02344 -898.95844 28.67752 0.69097 -8.08995 1.17287 -2.46205 -46.05859 -4.64952 -2.11994 -32.56407 -34.2167 21.34493 52.55639 83.02267 -3.24336 -10.77543 -18.77846 39.18813 -17.03782 40.87909 -82.85591 -8.27122 10.93145 105.38931 -7.95768 -9.45316 -71.52084 -14.19566 -1.98693 -3.56076 126.68097 -13.69369 -14.21346 -124.0702 -24.5908 -24.26697 -10.71706
0.27297 -0.57661 0.02329 -898.94724 28.55581 0.66415 -8.28879 1.31996 -2.5748 -46.30791 -4.8909 -2.11994 -32.28389 -34.17214 22.13899 52.62484 82.85793 -3.20839 -10.8268 -18.82548 39.13732 -18.18492 41.47923 -82.85538 -8.1393 11.09449 106.80046 -8.1708 -9.64682 -73.85914 -14.3784 -1.98495 -3.5689 126.68097 -13.69369 -14.26857 -124.14102 -24.0108 -24.25133 -10.632
0.27274 -0.57654 0.0232 -898.91988 28.44022 0.61293 -8.49874 1.49732 -2.74572 -46.53183 -5.14627 -2.11994 -31.91697 -34.1801 22.90578 52.53114 82.68531 -3.1986 -10.83012 -18.77526 39.09828 -19.41019 41.93143 -82.82283 -7.98477 11.20242 108.38946 -8.2998 -9.61752 -76.47495 -14.60911 -1.98762 -3.58197 126.68097 -13.69369 -14.3064 -124.21992 -23.35676 -24.18614 -10.52759
0.27252 -0.57647 0.02309 -898.89411 28.32686 0.57174 -8.70942 1.65965 -2.89657 -46.76381 -5.39085 -2.11994 -31.59904 -34.17272 23.67357 52.52129 82.51971 -3.17555 -10.85584 -18.76491 39.05528 -20.60573 42.44235 -82.80575 -7.83893 11.32892 109.89864 -8.49381 -9.70255 -78.97126 -14.81523 -1.98687 -3.5919 126.68097 -13.69369 -14.33861 -124.29471 -22.73702 -24.11803 -10.42755
0.27228 -0.57636 0.02293 -898.89182 28.19486 0.53451 -8.89737 1.82847 -3.02464 -47.01041 -5.65744 -2.11994 -31.24109 -34.13123 24.48931 52.47093 82.34216 -3.15546 -10.87282 -18.77262 39.00922 -21.78622 42.99246 -82.78511 -7.69214 11.47446 111.40716 -8.57768 -9.74079 -81.44701 -15.03294 -1.99086 -3.60499 126.68097 -13.69369 -14.42528 -124.37311 -22.11727 -24.15296 -10.34313
0.27207 -0.57633 0.02289 -898.8385 28.10159 0.48358 -9.13446 1.99062 -3.21106 -47.22158 -5.8808 -2.11994 -30.94226 -34.17301 25.20131 52.4655 82.18555 -3.13559 -10.89964 -18.71718 38.97182 -23.01144 43.4247 -82.76498 -7.54463 11.57166 112.95455 -8.8743 -9.82562 -84.02676 -15.23774 -1.98655 -3.6132 126.68097 -13.69368 -14.39796 -124.44496 -21.48098 -23.96711 -10.22378
0.27187 -0.57649 0.02315 -898.6302 28.1217 0.3985 -9.50742 2.12635 -3.5612 -47.32815 -5.97436 -2.11994 -30.86882 -34.42577 25.60159 52.62474 82.09903 -3.12657 -10.95688 -18.5399 38.94804 -24.36092 43.56579 -82.74926 -7.40501 11.53304 114.60702 -9.7222 -10.02685 -86.84934 -15.39937 -1.95725 -3.60525 126.68096 -13.69367 -14.02662 -124.50038 -20.7923 -23.1344 -9.99918
0.2717 -0.57672 0.02351 -898.37395 28.1794 0.30063 -9.92905 2.25451 -3.96476 -47.40203 -6.02469 -2.11994 -30.84922 -34.76108 25.90382 52.83483 82.02943 -3.11414 -11.02733 -18.2961 38.93312 -25.74833 43.59319 -82.7395 -7.2666 11.45113 116.28469 -10.79515 -10.29131 -89.7619 -15.54652 -1.92051 -3.59401 126.68096 -13.69364 -13.54651 -124.54829 -20.09411 -22.09007 -9.74238
0.27152 -0.57691 0.02381 -898.15185 28.21373 0.21054 -10.32586 2.38606 -4.33214 -47.49947 -6.09878 -2.11994 -30.78062 -35.06255 26.27166 53.02003 81.94809 -3.09417 -11.09908 -18.06607 38.919 -27.10377 43.67344 -82.72543 -7.12485 11.40101 117.92397 -11.80293 -10.57095 -92.61706 -15.69643 -1.88683 -3.58347 126.68095 -13.69362 -13.13912 -124.59672 -19.41495 -21.17534 -9.51011
0.2713 -0.57711 0.02417 -897.87865 28.27256 0.11253 -10.73305 2.51793 -4.75092 -47.56002 -6.15594 -2.11994 -30.81881 -35.35132 26.55033 53.20494 81.89315 -3.1158 -11.14132 -17.90775 38.88646 -28.52265 43.7438 -82.70223 -6.99051 11.29966 119.68366 -12.65703 -10.6652 -95.55159 -15.86043 -1.85128 -3.57047 126.68095 -13.6936 -12.63617 -124.65666 -18.66841 -20.11906 -9.23746
